<?xml version="1.0" encoding="utf-8"?>
<svg version="1.1" id="Layer_1" xmlns="http://www.w3.org/2000/svg" xmlns:xlink="http://www.w3.org/1999/xlink" x="0px" y="0px"
	 width="216px" height="216px" viewBox="0 0 216 216" enable-background="new 0 0 216 216" xml:space="preserve">
<g>
	<circle fill="#FFFFFF" stroke="#000615" stroke-width="6" stroke-linecap="round" stroke-linejoin="round" cx="53.21" cy="100.03" r="30.654"/>
	<circle fill="#FFFFFF" stroke="#000615" stroke-width="6" stroke-linecap="round" stroke-linejoin="round" cx="162.754" cy="100.03" r="30.653"/>
	<path fill="none" stroke="#000615" stroke-width="3" stroke-linecap="round" stroke-linejoin="round" d="M124.533,116.182v-3.51
		c0-1.938-1.57-3.508-3.508-3.508c-1.938,0-3.51,1.57-3.51,3.508v3.51 M128.041,101.146H87.946 M128.041,103.15v-5.613
		c0-2.246,0-3.369-0.438-4.226c-0.383-0.754-0.998-1.368-1.752-1.752c-0.857-0.438-1.979-0.438-4.227-0.438H94.361
		c-2.246,0-3.369,0-4.226,0.438c-0.754,0.384-1.368,0.998-1.752,1.752c-0.438,0.857-0.438,1.98-0.438,4.226v15.236
		c0,2.246,0,3.369,0.438,4.227c0.384,0.755,0.998,1.367,1.752,1.752c0.857,0.438,1.98,0.438,4.226,0.438h11.628 M117.216,124.2
		h7.618c1.123,0,1.686,0,2.111-0.22c0.379-0.19,0.686-0.498,0.877-0.875c0.219-0.43,0.219-0.99,0.219-2.113v-1.604
		c0-1.123,0-1.686-0.219-2.113c-0.191-0.377-0.498-0.685-0.877-0.877c-0.428-0.219-0.988-0.219-2.111-0.219h-7.618
		c-1.123,0-1.685,0-2.112,0.219c-0.377,0.192-0.685,0.5-0.877,0.877c-0.218,0.429-0.218,0.99-0.218,2.113v1.604
		c0,1.123,0,1.685,0.218,2.113c0.192,0.377,0.5,0.685,0.877,0.875C115.531,124.2,116.093,124.2,117.216,124.2z"/>
	<path fill="none" stroke="#000000" stroke-width="3" stroke-linecap="round" stroke-linejoin="round" d="M68.554,101.288
		c0,0-15.201,14.698-29.899,0"/>
	<path fill="none" stroke="#000000" stroke-width="3" stroke-linecap="round" stroke-linejoin="round" d="M177.348,101.288
		c0,0-15.201,14.698-29.897,0"/>
	<g>
		<polygon fill="#2DD4BF" points="91.324,115.961 94.028,115.961 94.028,111.705 99.434,111.705 99.434,109.535 94.028,109.535 
			94.028,106.449 100.151,106.449 100.151,104.28 91.324,104.28 		"/>
		<path fill="#2DD4BF" d="M109.764,113.348c-0.18,0.094-0.359,0.188-0.543,0.252c-0.506,0.172-1.026,0.258-1.561,0.258
			c-0.556,0-1.065-0.088-1.526-0.267c-0.462-0.178-0.862-0.437-1.202-0.776c-0.34-0.338-0.601-0.735-0.784-1.192
			c-0.185-0.454-0.276-0.955-0.276-1.502c0-0.556,0.092-1.062,0.276-1.519c0.183-0.456,0.444-0.852,0.784-1.185
			c0.339-0.333,0.743-0.589,1.209-0.767c0.467-0.179,0.985-0.268,1.552-0.268c0.59,0,1.135,0.109,1.635,0.326
			c0.501,0.217,0.963,0.548,1.386,0.993l1.735-1.602c-0.567-0.657-1.266-1.157-2.096-1.502c-0.828-0.345-1.761-0.517-2.794-0.517
			c-0.933,0-1.791,0.147-2.569,0.441c-0.779,0.295-1.457,0.715-2.036,1.26c-0.578,0.545-1.026,1.185-1.343,1.919
			c-0.316,0.734-0.476,1.541-0.476,2.419c0,0.879,0.159,1.688,0.476,2.421c0.317,0.733,0.762,1.374,1.335,1.919
			c0.572,0.545,1.246,0.965,2.019,1.26s1.621,0.442,2.544,0.442c0.834,0,1.673-0.128,2.513-0.386c0.84-0.256,1.578-0.621,2.213-1.1
			v-4.74h-2.471V113.348L109.764,113.348z"/>
	</g>
</g>
</svg>
